<svg id="svg" version="1.1" xmlns="http://www.w3.org/2000/svg" xmlns:xlink="http://www.w3.org/1999/xlink" width="400" height="400" viewBox="0, 0, 400,400"><g id="svgg"><path id="path0" d="M184.769 10.681 C 184.494 11.406,184.529 11.877,184.891 12.325 C 185.204 12.711,185.223 12.847,184.940 12.678 C 184.628 12.491,184.480 12.854,184.480 13.801 C 184.480 14.571,184.597 15.200,184.740 15.200 C 184.883 15.200,184.951 22.355,184.891 31.100 L 184.782 47.000 179.991 46.952 C 177.356 46.926,175.200 47.019,175.200 47.159 C 175.200 47.299,174.583 47.385,173.829 47.349 C 172.399 47.282,172.287 47.727,173.362 49.200 C 173.736 49.713,173.704 49.725,173.136 49.281 C 172.689 48.931,172.386 48.898,172.212 49.181 C 172.069 49.411,172.124 49.600,172.334 49.600 C 172.543 49.600,172.828 49.895,172.966 50.257 C 173.170 50.787,173.109 50.822,172.651 50.442 C 172.184 50.055,172.093 50.152,172.141 50.985 C 172.174 51.543,172.335 52.000,172.500 52.000 C 172.665 52.000,172.800 52.191,172.800 52.424 C 172.800 52.657,172.614 52.732,172.386 52.592 C 172.105 52.418,172.009 55.505,172.086 62.268 L 172.200 72.200 168.642 72.070 C 166.010 71.974,164.997 72.078,164.748 72.470 C 164.563 72.762,164.409 72.817,164.406 72.593 C 164.403 72.368,163.500 72.162,162.400 72.133 C 160.379 72.080,160.042 72.282,160.835 73.075 C 161.148 73.388,161.131 73.596,160.773 73.817 C 160.471 74.004,160.378 73.959,160.536 73.704 C 160.679 73.473,160.565 73.195,160.283 73.087 C 159.708 72.866,159.726 72.465,159.650 87.400 L 159.602 97.000 156.056 96.873 C 153.149 96.769,152.390 96.867,151.836 97.421 C 151.465 97.792,151.052 97.985,150.918 97.851 C 150.783 97.717,150.469 97.740,150.218 97.903 C 149.967 98.067,150.106 97.885,150.525 97.500 C 151.097 96.975,151.144 96.800,150.711 96.800 C 150.393 96.800,149.998 96.935,149.833 97.100 C 149.668 97.265,149.053 97.400,148.467 97.400 C 147.578 97.400,147.400 97.578,147.400 98.467 C 147.400 99.053,147.265 99.668,147.100 99.833 C 146.935 99.998,146.800 100.393,146.800 100.711 C 146.800 101.144,146.975 101.097,147.500 100.525 C 147.885 100.106,148.067 99.967,147.903 100.218 C 147.740 100.469,147.717 100.783,147.851 100.918 C 147.985 101.052,147.804 101.453,147.448 101.810 C 146.886 102.371,146.800 103.754,146.800 112.196 L 146.800 121.935 148.100 122.736 C 151.112 124.594,152.476 124.788,162.540 124.794 L 172.080 124.800 173.440 123.440 C 174.778 122.102,174.800 122.024,174.800 118.600 C 174.800 115.176,174.822 115.098,176.160 113.760 L 177.520 112.400 199.732 112.400 L 221.943 112.400 223.372 111.053 C 224.795 109.710,224.800 109.695,224.800 106.247 C 224.800 102.867,224.831 102.754,226.168 101.294 L 227.537 99.800 231.868 99.587 C 235.448 99.411,236.547 99.197,238.200 98.357 L 240.200 97.340 240.223 85.112 C 240.242 75.224,240.147 72.922,239.726 73.084 C 239.439 73.194,239.321 73.473,239.464 73.704 C 239.622 73.959,239.529 74.004,239.227 73.817 C 238.869 73.596,238.852 73.388,239.165 73.075 C 239.958 72.282,239.621 72.080,237.600 72.133 C 236.500 72.162,235.597 72.368,235.594 72.593 C 235.591 72.817,235.437 72.762,235.252 72.470 C 235.003 72.078,233.990 71.974,231.358 72.070 L 227.800 72.200 227.914 62.268 C 227.991 55.505,227.895 52.418,227.614 52.592 C 227.386 52.732,227.200 52.657,227.200 52.424 C 227.200 52.191,227.335 52.000,227.500 52.000 C 227.665 52.000,227.826 51.543,227.859 50.985 C 227.907 50.152,227.816 50.055,227.349 50.442 C 226.891 50.822,226.830 50.787,227.034 50.257 C 227.172 49.895,227.457 49.600,227.666 49.600 C 227.876 49.600,227.931 49.411,227.788 49.181 C 227.614 48.898,227.311 48.931,226.864 49.281 C 226.296 49.725,226.264 49.713,226.638 49.200 C 227.713 47.727,227.601 47.282,226.171 47.349 C 225.417 47.385,224.800 47.299,224.800 47.159 C 224.800 47.019,222.644 46.926,220.009 46.952 L 215.218 47.000 215.109 31.100 C 215.049 22.355,215.117 15.200,215.260 15.200 C 215.403 15.200,215.520 14.571,215.520 13.801 C 215.520 12.854,215.372 12.491,215.060 12.678 C 214.777 12.847,214.796 12.711,215.109 12.325 C 215.471 11.877,215.506 11.406,215.231 10.681 C 214.821 9.602,214.354 9.534,212.894 10.336 C 212.235 10.699,212.017 10.708,212.094 10.370 C 212.152 10.115,211.884 9.853,211.498 9.788 C 211.112 9.723,210.898 9.834,211.022 10.035 C 211.146 10.236,211.057 10.400,210.824 10.400 C 210.591 10.400,210.400 10.226,210.400 10.014 C 210.400 9.776,206.415 9.628,200.000 9.628 C 193.585 9.628,189.600 9.776,189.600 10.014 C 189.600 10.226,189.409 10.400,189.176 10.400 C 188.943 10.400,188.854 10.236,188.978 10.035 C 189.102 9.834,188.888 9.723,188.502 9.788 C 188.116 9.853,187.848 10.115,187.906 10.370 C 187.983 10.708,187.765 10.699,187.106 10.336 C 185.646 9.534,185.179 9.602,184.769 10.681 M176.353 163.953 L 174.800 165.506 174.839 186.653 C 174.886 212.598,175.197 223.358,175.919 224.081 C 176.294 224.455,178.238 224.625,182.905 224.690 C 186.462 224.740,189.603 224.869,189.886 224.978 C 190.301 225.137,190.400 220.619,190.400 201.487 L 190.400 177.800 200.000 177.800 L 209.600 177.800 209.599 213.800 L 209.599 249.800 216.499 249.686 C 225.919 249.530,224.800 253.368,224.800 221.221 C 224.800 206.541,224.919 188.029,225.065 180.083 L 225.329 165.635 223.712 164.017 L 222.094 162.400 200.000 162.400 L 177.906 162.400 176.353 163.953 M99.833 197.100 C 99.668 197.265,99.053 197.400,98.467 197.400 C 97.578 197.400,97.400 197.578,97.400 198.467 C 97.400 199.053,97.265 199.668,97.100 199.833 C 96.935 199.998,96.800 200.393,96.800 200.711 C 96.800 201.144,96.975 201.097,97.500 200.525 C 97.885 200.106,98.067 199.967,97.903 200.218 C 97.740 200.469,97.717 200.783,97.851 200.918 C 97.985 201.052,97.800 201.457,97.439 201.818 C 96.848 202.409,96.793 204.094,96.891 218.612 L 97.000 234.750 93.337 234.875 C 91.322 234.944,89.758 234.865,89.861 234.700 C 90.177 234.191,89.042 234.394,88.261 234.985 C 87.496 235.565,86.236 235.390,86.626 234.758 C 86.748 234.561,86.667 234.400,86.447 234.400 C 86.227 234.400,85.934 234.583,85.796 234.807 C 85.658 235.030,85.349 235.092,85.111 234.945 C 84.861 234.791,84.791 234.861,84.945 235.111 C 85.092 235.349,85.030 235.658,84.807 235.796 C 84.583 235.934,84.400 236.227,84.400 236.447 C 84.400 236.667,84.561 236.748,84.758 236.626 C 85.390 236.236,85.565 237.496,84.985 238.261 C 84.303 239.162,84.221 240.158,84.862 239.762 C 85.124 239.600,85.216 239.651,85.074 239.880 C 84.937 240.102,84.807 244.675,84.786 250.042 L 84.747 259.800 78.822 259.795 C 74.227 259.791,72.941 259.902,73.091 260.293 C 73.197 260.569,73.473 260.679,73.704 260.536 C 73.959 260.378,74.004 260.471,73.817 260.773 C 73.596 261.131,73.388 261.148,73.075 260.835 C 72.836 260.596,72.508 260.400,72.346 260.400 C 71.906 260.400,72.138 264.155,72.600 264.494 C 72.848 264.676,72.810 264.790,72.500 264.794 C 72.114 264.799,72.000 267.064,72.000 274.771 L 72.000 284.741 68.599 284.871 C 66.729 284.942,65.199 284.883,65.199 284.740 C 65.200 284.597,64.571 284.480,63.801 284.480 C 62.854 284.480,62.491 284.628,62.678 284.940 C 62.847 285.223,62.711 285.204,62.325 284.891 C 61.877 284.529,61.406 284.494,60.681 284.769 C 59.602 285.179,59.534 285.646,60.336 287.106 C 60.699 287.765,60.708 287.983,60.370 287.906 C 60.115 287.848,59.853 288.116,59.788 288.502 C 59.723 288.888,59.834 289.102,60.035 288.978 C 60.236 288.854,60.400 288.943,60.400 289.176 C 60.400 289.409,60.232 289.600,60.026 289.600 C 59.805 289.600,59.636 293.644,59.614 299.479 C 59.593 304.912,59.536 309.394,59.488 309.439 C 59.439 309.484,57.600 309.573,55.400 309.639 C 53.200 309.704,51.140 309.947,50.823 310.179 C 50.431 310.465,50.326 310.467,50.496 310.183 C 50.642 309.938,50.264 309.729,49.583 309.677 C 48.725 309.612,48.478 309.737,48.638 310.154 C 48.757 310.465,48.683 310.825,48.472 310.955 C 48.262 311.085,48.115 310.968,48.145 310.696 C 48.175 310.423,48.020 310.155,47.800 310.099 C 47.580 310.044,47.394 310.440,47.387 310.979 C 47.379 311.518,47.244 312.089,47.087 312.247 C 46.929 312.404,46.803 312.908,46.806 313.367 C 46.811 314.063,46.881 314.102,47.232 313.600 C 47.546 313.152,47.570 313.254,47.326 314.000 C 47.147 314.550,47.000 319.444,47.000 324.875 L 47.000 334.750 43.337 334.875 C 41.322 334.944,39.758 334.865,39.861 334.700 C 40.177 334.191,39.042 334.394,38.261 334.985 C 37.496 335.565,36.236 335.390,36.626 334.758 C 36.748 334.561,36.667 334.400,36.447 334.400 C 36.227 334.400,35.934 334.583,35.796 334.807 C 35.658 335.030,35.349 335.092,35.111 334.945 C 34.861 334.791,34.791 334.861,34.945 335.111 C 35.092 335.349,35.030 335.658,34.807 335.796 C 34.583 335.934,34.400 336.227,34.400 336.447 C 34.400 336.667,34.561 336.748,34.758 336.626 C 35.390 336.236,35.565 337.496,34.985 338.261 C 34.303 339.162,34.221 340.158,34.862 339.762 C 35.124 339.600,35.216 339.651,35.074 339.880 C 34.937 340.102,34.807 344.675,34.786 350.042 L 34.747 359.800 28.822 359.795 C 24.227 359.791,22.941 359.902,23.091 360.293 C 23.197 360.569,23.473 360.679,23.704 360.536 C 23.959 360.378,24.004 360.471,23.817 360.773 C 23.596 361.131,23.388 361.148,23.075 360.835 C 22.836 360.596,22.508 360.400,22.346 360.400 C 21.906 360.400,22.138 364.155,22.600 364.494 C 22.848 364.676,22.810 364.790,22.500 364.794 C 22.113 364.799,22.000 367.110,22.000 375.000 C 22.000 382.890,22.113 385.201,22.500 385.206 C 22.810 385.210,22.848 385.324,22.600 385.506 C 22.138 385.845,21.906 389.600,22.346 389.600 C 22.508 389.600,22.836 389.404,23.075 389.165 C 23.388 388.852,23.596 388.869,23.817 389.227 C 24.004 389.529,23.959 389.622,23.704 389.464 C 23.473 389.321,23.190 389.448,23.076 389.745 C 22.904 390.194,26.056 390.297,41.634 390.354 C 54.260 390.400,60.400 390.288,60.400 390.011 C 60.400 389.785,60.591 389.600,60.824 389.600 C 61.057 389.600,61.146 389.764,61.022 389.965 C 60.898 390.166,61.112 390.277,61.498 390.212 C 61.884 390.147,62.152 389.885,62.094 389.630 C 62.017 389.292,62.235 389.301,62.894 389.664 C 64.354 390.466,64.821 390.398,65.231 389.319 C 65.506 388.594,65.471 388.123,65.109 387.675 C 64.796 387.289,64.777 387.153,65.060 387.322 C 65.372 387.509,65.520 387.146,65.520 386.199 C 65.520 385.429,65.403 384.800,65.260 384.801 C 65.117 384.801,65.058 383.271,65.129 381.401 L 65.259 378.000 68.929 377.955 C 75.198 377.879,76.277 377.581,77.240 375.656 C 77.843 374.450,77.894 373.969,77.955 368.929 L 78.000 365.259 81.401 365.129 C 83.271 365.058,84.801 365.117,84.801 365.260 C 84.800 365.403,85.429 365.520,86.199 365.520 C 87.146 365.520,87.509 365.372,87.322 365.060 C 87.153 364.777,87.289 364.796,87.675 365.109 C 88.123 365.471,88.594 365.506,89.319 365.231 C 90.398 364.821,90.466 364.354,89.664 362.894 C 89.301 362.235,89.292 362.017,89.630 362.094 C 89.885 362.152,90.147 361.884,90.212 361.498 C 90.277 361.112,90.166 360.898,89.965 361.022 C 89.764 361.146,89.600 361.057,89.600 360.824 C 89.600 360.591,89.780 360.400,90.000 360.400 C 90.220 360.400,90.379 360.265,90.353 360.100 C 90.327 359.935,90.327 358.270,90.353 356.400 L 90.400 353.000 168.900 353.114 C 212.075 353.176,247.940 353.132,248.600 353.015 L 249.800 352.802 249.672 346.583 L 249.543 340.363 251.125 338.781 L 252.706 337.200 256.193 337.200 C 261.270 337.200,262.400 336.071,262.400 331.000 C 262.400 325.931,263.531 324.800,268.600 324.800 C 273.669 324.800,274.800 323.669,274.800 318.600 C 274.800 313.531,275.931 312.400,281.000 312.400 C 286.071 312.400,287.200 311.270,287.200 306.193 L 287.200 302.706 288.753 301.153 L 290.306 299.600 293.878 299.600 C 298.895 299.600,299.600 298.889,299.600 293.831 L 299.600 290.306 301.153 288.753 L 302.706 287.200 306.193 287.200 C 309.625 287.200,309.701 287.179,311.040 285.840 C 313.100 283.780,313.107 278.806,311.053 276.628 L 309.706 275.200 299.866 275.200 L 290.027 275.200 288.613 273.787 C 287.208 272.381,287.200 272.354,287.200 268.817 C 287.200 265.380,287.159 265.221,285.969 264.031 L 284.738 262.800 268.722 262.800 L 252.706 262.800 251.153 261.247 L 249.600 259.694 249.600 256.169 C 249.600 252.888,249.525 252.566,248.525 251.522 L 247.450 250.400 236.948 250.400 C 226.548 250.400,226.439 250.409,225.823 251.289 C 225.284 252.058,225.200 254.377,225.200 268.529 L 225.200 284.880 223.840 286.240 L 222.480 287.600 200.046 287.600 L 177.613 287.600 176.306 286.433 L 175.000 285.266 174.800 255.853 C 174.641 232.489,174.493 226.333,174.081 225.920 C 173.692 225.530,170.903 225.350,162.949 225.200 L 152.337 225.000 150.968 223.506 C 149.633 222.047,149.600 221.930,149.600 218.575 C 149.600 215.310,149.542 215.080,148.431 213.969 L 147.262 212.800 137.444 212.800 L 127.627 212.800 126.213 211.387 C 124.808 209.981,124.800 209.954,124.800 206.417 C 124.800 201.368,123.870 200.400,119.020 200.400 C 115.219 200.400,112.890 199.722,110.723 197.984 C 108.929 196.545,103.065 196.192,101.810 197.448 C 101.453 197.804,101.052 197.985,100.918 197.851 C 100.783 197.717,100.469 197.740,100.218 197.903 C 99.967 198.067,100.106 197.885,100.525 197.500 C 101.097 196.975,101.144 196.800,100.711 196.800 C 100.393 196.800,99.998 196.935,99.833 197.100 M76.880 376.880 C 76.616 377.144,76.400 377.498,76.400 377.667 C 76.400 378.165,77.518 377.590,77.757 376.969 C 78.023 376.275,77.535 376.225,76.880 376.880 " stroke="none" fill="#6c0404" fill-rule="evenodd"></path><path id="path1" d="M193.700 9.499 C 197.165 9.566,202.835 9.566,206.300 9.499 C 209.765 9.433,206.930 9.378,200.000 9.378 C 193.070 9.378,190.235 9.433,193.700 9.499 M159.375 86.000 C 159.375 92.050,159.431 94.525,159.499 91.500 C 159.567 88.475,159.567 83.525,159.499 80.500 C 159.431 77.475,159.375 79.950,159.375 86.000 M240.397 86.171 L 240.200 97.343 238.200 98.358 C 236.548 99.197,235.446 99.411,231.868 99.587 L 227.537 99.800 226.168 101.294 C 224.831 102.754,224.800 102.867,224.800 106.247 C 224.800 109.695,224.795 109.710,223.372 111.053 L 221.943 112.400 199.732 112.400 L 177.520 112.400 176.160 113.760 C 174.822 115.098,174.800 115.176,174.800 118.600 C 174.800 122.024,174.778 122.102,173.440 123.440 L 172.080 124.800 162.540 124.794 C 152.500 124.788,151.108 124.591,148.136 122.758 C 147.002 122.060,146.235 121.990,140.736 122.089 L 134.600 122.200 134.494 134.490 L 134.388 146.779 128.294 146.890 L 122.200 147.000 122.094 159.500 L 121.989 172.000 115.851 172.000 L 109.714 172.000 109.457 174.459 C 109.316 175.811,109.200 181.378,109.200 186.830 L 109.200 196.742 110.678 197.960 C 112.780 199.693,115.204 200.400,119.040 200.400 C 123.868 200.400,124.800 201.374,124.800 206.417 C 124.800 209.954,124.808 209.981,126.213 211.387 L 127.627 212.800 137.444 212.800 L 147.262 212.800 148.431 213.969 C 149.542 215.080,149.600 215.310,149.600 218.575 C 149.600 221.930,149.633 222.047,150.968 223.506 L 152.337 225.000 162.949 225.200 C 170.903 225.350,173.692 225.530,174.081 225.920 C 174.493 226.333,174.641 232.489,174.800 255.853 L 175.000 285.266 176.306 286.433 L 177.613 287.600 200.046 287.600 L 222.480 287.600 223.840 286.240 L 225.200 284.880 225.200 268.529 C 225.200 254.377,225.284 252.058,225.823 251.289 C 226.439 250.409,226.550 250.400,236.901 250.400 L 247.356 250.400 248.478 251.475 C 249.543 252.495,249.600 252.730,249.600 256.122 L 249.600 259.694 251.153 261.247 L 252.706 262.800 268.722 262.800 L 284.738 262.800 285.969 264.031 C 287.159 265.221,287.200 265.380,287.200 268.817 C 287.200 272.354,287.208 272.381,288.613 273.787 L 290.027 275.200 299.866 275.200 L 309.706 275.200 311.053 276.628 C 313.107 278.806,313.100 283.780,311.040 285.840 C 309.701 287.179,309.625 287.200,306.193 287.200 L 302.706 287.200 301.153 288.753 L 299.600 290.306 299.600 293.831 C 299.600 298.889,298.895 299.600,293.878 299.600 L 290.306 299.600 288.753 301.153 L 287.200 302.706 287.200 306.193 C 287.200 311.270,286.071 312.400,281.000 312.400 C 275.931 312.400,274.800 313.531,274.800 318.600 C 274.800 323.669,273.669 324.800,268.600 324.800 C 263.531 324.800,262.400 325.931,262.400 331.000 C 262.400 336.071,261.270 337.200,256.193 337.200 L 252.706 337.200 251.125 338.781 L 249.543 340.363 249.672 346.572 C 249.780 351.826,249.708 352.806,249.200 352.944 C 248.870 353.034,262.235 353.128,278.900 353.154 L 309.200 353.200 309.200 356.941 C 309.200 358.999,309.316 361.789,309.457 363.141 L 309.714 365.600 315.857 365.600 L 322.000 365.600 322.000 371.800 L 322.000 378.000 328.200 378.000 L 334.400 378.000 334.400 384.143 L 334.400 390.286 336.859 390.543 C 338.211 390.684,346.915 390.800,356.200 390.800 C 365.485 390.800,374.189 390.684,375.541 390.543 L 378.000 390.286 378.000 375.000 L 378.000 359.714 375.541 359.457 C 374.189 359.316,371.402 359.200,369.347 359.200 L 365.612 359.200 365.506 346.900 L 365.400 334.600 359.300 334.490 L 353.200 334.379 353.200 322.213 C 353.200 313.487,353.070 309.967,352.741 309.763 C 352.488 309.607,349.698 309.392,346.541 309.285 L 340.800 309.090 340.800 299.204 C 340.800 293.766,340.684 288.211,340.543 286.859 L 340.286 284.400 334.143 284.400 L 328.000 284.400 328.000 272.057 L 328.000 259.714 325.541 259.457 C 324.189 259.316,321.402 259.200,319.347 259.200 L 315.612 259.200 315.506 246.900 L 315.400 234.600 309.300 234.490 L 303.200 234.379 303.200 216.070 C 303.200 202.362,303.079 197.639,302.720 197.280 C 302.391 196.951,300.436 196.800,296.520 196.800 L 290.800 196.800 290.800 186.859 C 290.800 181.391,290.684 175.811,290.543 174.459 L 290.286 172.000 284.149 172.000 L 278.011 172.000 277.906 159.500 L 277.800 147.000 271.706 146.890 L 265.612 146.779 265.506 134.490 L 265.400 122.200 259.300 122.090 L 253.200 121.979 253.200 109.870 C 253.200 100.984,253.072 97.632,252.720 97.280 C 252.391 96.951,250.437 96.800,246.526 96.800 L 240.813 96.800 240.703 85.900 L 240.593 75.000 240.397 86.171 M223.712 164.017 L 225.329 165.635 225.065 180.083 C 224.919 188.029,224.800 206.541,224.800 221.221 C 224.800 253.367,225.919 249.530,216.502 249.686 L 209.603 249.800 209.499 213.800 C 209.398 178.703,209.393 178.981,209.298 224.900 L 209.200 272.000 200.000 272.000 L 190.800 272.000 190.703 224.900 C 190.650 198.995,190.559 188.459,190.500 201.486 C 190.415 220.506,190.293 225.134,189.883 224.976 C 189.602 224.869,186.462 224.740,182.905 224.690 C 178.238 224.625,176.294 224.455,175.919 224.081 C 175.197 223.358,174.886 212.598,174.839 186.653 L 174.800 165.506 176.353 163.953 L 177.906 162.400 200.000 162.400 L 222.094 162.400 223.712 164.017 M77.516 259.497 C 78.899 259.575,81.059 259.574,82.316 259.495 C 83.572 259.416,82.440 259.352,79.800 259.353 C 77.160 259.353,76.132 259.418,77.516 259.497 M59.293 298.287 L 59.200 309.175 54.500 309.301 L 49.800 309.428 54.513 309.514 C 60.228 309.618,59.639 310.979,59.500 297.994 L 59.386 287.400 59.293 298.287 M90.553 357.800 C 90.553 360.440,90.618 361.468,90.697 360.084 C 90.775 358.701,90.774 356.541,90.695 355.284 C 90.616 354.028,90.552 355.160,90.553 357.800 M27.516 359.497 C 28.899 359.575,31.059 359.574,32.316 359.495 C 33.572 359.416,32.440 359.352,29.800 359.353 C 27.160 359.353,26.132 359.418,27.516 359.497 M34.528 390.700 C 39.768 390.763,48.228 390.763,53.328 390.700 C 58.427 390.636,54.140 390.585,43.800 390.585 C 33.460 390.585,29.287 390.637,34.528 390.700 " stroke="none" fill="#090404" fill-rule="evenodd"></path><path id="path2" d="M184.533 10.231 C 184.400 10.578,184.561 11.132,184.891 11.462 C 185.424 11.995,185.515 11.967,185.714 11.208 C 185.908 10.466,185.853 10.423,185.299 10.877 C 184.743 11.333,184.691 11.285,184.893 10.500 C 185.158 9.474,184.898 9.280,184.533 10.231 M215.107 10.499 C 215.309 11.285,215.257 11.333,214.701 10.877 C 214.148 10.424,214.092 10.465,214.280 11.186 C 214.451 11.840,214.615 11.919,215.049 11.559 C 215.678 11.038,215.774 10.154,215.237 9.823 C 215.038 9.700,214.979 10.004,215.107 10.499 M184.488 31.300 C 184.537 40.155,184.626 44.880,184.687 41.800 C 184.967 27.591,184.973 15.199,184.700 15.200 C 184.535 15.200,184.440 22.445,184.488 31.300 M215.101 25.700 C 215.157 31.475,215.253 38.720,215.313 41.800 C 215.374 44.880,215.463 40.155,215.512 31.300 C 215.560 22.445,215.465 15.200,215.300 15.200 C 215.135 15.200,215.046 19.925,215.101 25.700 M172.800 47.313 C 172.470 47.581,172.138 48.160,172.062 48.600 C 171.986 49.040,172.059 49.267,172.225 49.103 C 172.391 48.940,172.813 49.022,173.163 49.284 C 173.696 49.684,173.719 49.670,173.300 49.201 C 173.025 48.892,172.803 48.361,172.806 48.020 C 172.812 47.472,172.863 47.470,173.244 48.000 C 173.600 48.496,173.633 48.470,173.432 47.852 C 173.229 47.228,173.354 47.136,174.194 47.297 C 174.747 47.403,175.200 47.334,175.200 47.145 C 175.200 46.632,173.490 46.752,172.800 47.313 M224.800 47.145 C 224.800 47.334,225.253 47.403,225.806 47.297 C 226.646 47.136,226.771 47.228,226.568 47.852 C 226.367 48.470,226.400 48.496,226.756 48.000 C 227.137 47.470,227.188 47.472,227.194 48.020 C 227.197 48.361,226.975 48.892,226.700 49.201 C 226.281 49.670,226.304 49.684,226.837 49.284 C 227.187 49.022,227.609 48.940,227.775 49.103 C 227.941 49.267,228.014 49.040,227.938 48.600 C 227.706 47.256,224.800 45.908,224.800 47.145 M159.969 72.033 C 159.953 72.125,159.880 72.503,159.809 72.872 C 159.718 73.342,159.868 73.472,160.305 73.304 C 160.752 73.133,160.837 73.216,160.604 73.594 C 160.381 73.954,160.430 74.028,160.758 73.826 C 161.130 73.596,161.124 73.378,160.733 72.864 C 160.454 72.499,160.175 72.125,160.113 72.033 C 160.051 71.942,159.986 71.942,159.969 72.033 M239.293 72.800 C 238.940 73.365,238.934 73.636,239.270 73.843 C 239.569 74.028,239.612 73.943,239.396 73.594 C 239.163 73.216,239.248 73.133,239.695 73.304 C 240.094 73.458,240.291 73.341,240.239 72.984 C 240.102 72.054,239.796 71.995,239.293 72.800 M148.400 97.165 C 148.400 97.571,149.423 97.511,149.855 97.078 C 150.008 96.925,149.743 96.800,149.267 96.800 C 148.790 96.800,148.400 96.964,148.400 97.165 M150.525 97.500 C 150.106 97.885,149.967 98.067,150.218 97.903 C 150.469 97.740,150.783 97.717,150.918 97.851 C 151.052 97.985,151.453 97.804,151.810 97.448 C 152.746 96.511,151.550 96.560,150.525 97.500 M146.800 99.267 C 146.800 99.743,146.925 100.008,147.078 99.855 C 147.511 99.423,147.571 98.400,147.165 98.400 C 146.964 98.400,146.800 98.790,146.800 99.267 M147.423 100.489 C 146.561 101.719,146.579 102.678,147.448 101.810 C 147.804 101.453,147.985 101.052,147.851 100.918 C 147.717 100.783,147.807 100.432,148.052 100.137 C 148.297 99.842,148.396 99.600,148.272 99.600 C 148.147 99.600,147.765 100.000,147.423 100.489 M98.400 197.165 C 98.400 197.571,99.423 197.511,99.855 197.078 C 100.008 196.925,99.743 196.800,99.267 196.800 C 98.790 196.800,98.400 196.964,98.400 197.165 M100.525 197.500 C 100.106 197.885,99.967 198.067,100.218 197.903 C 100.469 197.740,100.783 197.717,100.918 197.851 C 101.052 197.985,101.453 197.804,101.810 197.448 C 102.746 196.511,101.550 196.560,100.525 197.500 M96.800 199.267 C 96.800 199.743,96.925 200.008,97.078 199.855 C 97.511 199.423,97.571 198.400,97.165 198.400 C 96.964 198.400,96.800 198.790,96.800 199.267 M97.423 200.489 C 96.561 201.719,96.579 202.678,97.448 201.810 C 97.804 201.453,97.985 201.052,97.851 200.918 C 97.717 200.783,97.807 200.432,98.052 200.137 C 98.297 199.842,98.396 199.600,98.272 199.600 C 98.147 199.600,97.765 200.000,97.423 200.489 M85.337 234.980 C 85.485 235.367,85.367 235.485,84.980 235.337 C 84.661 235.214,84.400 235.275,84.400 235.472 C 84.400 235.669,84.748 235.856,85.173 235.888 C 85.708 235.928,85.928 235.708,85.888 235.173 C 85.856 234.748,85.669 234.400,85.472 234.400 C 85.275 234.400,85.214 234.661,85.337 234.980 M86.600 234.800 C 86.260 235.351,87.495 235.565,88.168 235.073 C 88.729 234.662,88.681 234.592,87.804 234.542 C 87.249 234.510,86.707 234.626,86.600 234.800 M89.861 234.700 C 89.758 234.865,90.872 234.950,92.337 234.890 C 96.977 234.697,97.521 234.530,93.724 234.464 C 91.702 234.429,89.963 234.535,89.861 234.700 M84.755 236.400 C 84.638 236.802,84.566 238.800,84.667 238.800 C 85.092 238.800,85.482 237.258,85.178 236.778 C 84.977 236.460,84.786 236.290,84.755 236.400 M84.580 240.108 C 84.473 240.388,84.434 244.843,84.493 250.008 L 84.601 259.400 84.801 249.500 C 84.996 239.813,84.978 239.070,84.580 240.108 M72.208 259.987 C 72.122 260.126,72.392 260.452,72.807 260.712 C 73.368 261.062,73.635 261.066,73.843 260.730 C 74.028 260.431,73.943 260.388,73.594 260.604 C 73.221 260.834,73.132 260.754,73.294 260.332 C 73.517 259.752,72.545 259.442,72.208 259.987 M59.823 284.763 C 59.700 284.962,60.004 285.021,60.499 284.893 C 61.285 284.691,61.333 284.743,60.877 285.299 C 60.424 285.852,60.465 285.908,61.186 285.720 C 61.840 285.549,61.919 285.385,61.559 284.951 C 61.038 284.322,60.154 284.226,59.823 284.763 M65.199 284.700 C 65.199 284.865,66.324 284.950,67.699 284.888 C 71.950 284.698,72.360 284.523,68.700 284.460 C 66.775 284.427,65.200 284.535,65.199 284.700 M47.067 310.667 C 46.698 311.036,46.732 312.310,47.116 312.548 C 47.291 312.656,47.426 312.217,47.417 311.572 C 47.409 310.927,47.386 310.400,47.368 310.400 C 47.349 310.400,47.213 310.520,47.067 310.667 M35.337 334.980 C 35.485 335.367,35.367 335.485,34.980 335.337 C 34.661 335.214,34.400 335.275,34.400 335.472 C 34.400 335.669,34.748 335.856,35.173 335.888 C 35.708 335.928,35.928 335.708,35.888 335.173 C 35.856 334.748,35.669 334.400,35.472 334.400 C 35.275 334.400,35.214 334.661,35.337 334.980 M36.600 334.800 C 36.260 335.351,37.495 335.565,38.168 335.073 C 38.729 334.662,38.681 334.592,37.804 334.542 C 37.249 334.510,36.707 334.626,36.600 334.800 M39.861 334.700 C 39.758 334.865,40.872 334.950,42.337 334.890 C 46.977 334.697,47.521 334.530,43.724 334.464 C 41.702 334.429,39.963 334.535,39.861 334.700 M34.755 336.400 C 34.638 336.802,34.566 338.800,34.667 338.800 C 35.092 338.800,35.482 337.258,35.178 336.778 C 34.977 336.460,34.786 336.290,34.755 336.400 M34.580 340.108 C 34.473 340.388,34.434 344.843,34.493 350.008 L 34.601 359.400 34.801 349.500 C 34.996 339.813,34.978 339.070,34.580 340.108 M22.208 359.987 C 22.122 360.126,22.392 360.452,22.807 360.712 C 23.368 361.062,23.635 361.066,23.843 360.730 C 24.028 360.431,23.943 360.388,23.594 360.604 C 23.221 360.834,23.132 360.754,23.294 360.332 C 23.517 359.752,22.545 359.442,22.208 359.987 M88.679 364.280 C 88.106 364.428,88.054 364.584,88.428 365.033 C 88.961 365.676,89.843 365.778,90.177 365.237 C 90.300 365.038,89.996 364.979,89.501 365.107 C 88.698 365.313,88.660 365.266,89.149 364.669 C 89.451 364.301,89.631 364.021,89.549 364.046 C 89.467 364.072,89.075 364.177,88.679 364.280 M81.200 365.200 L 77.800 365.451 81.300 365.525 C 83.416 365.571,84.800 365.442,84.800 365.200 C 84.800 364.980,84.755 364.834,84.700 364.875 C 84.645 364.916,83.070 365.062,81.200 365.200 M77.127 375.800 C 76.877 376.350,76.555 376.800,76.412 376.800 C 76.270 376.800,75.804 377.057,75.376 377.370 C 74.617 377.928,74.617 377.939,75.367 377.870 C 76.366 377.779,77.798 376.392,77.815 375.500 C 77.833 374.546,77.665 374.620,77.127 375.800 M65.129 381.401 C 65.058 383.271,65.135 384.801,65.300 384.801 C 65.465 384.800,65.600 383.270,65.600 381.400 C 65.600 377.007,65.297 377.007,65.129 381.401 M64.280 388.814 C 64.092 389.535,64.148 389.576,64.701 389.123 C 65.257 388.667,65.309 388.715,65.107 389.501 C 64.979 389.996,65.038 390.300,65.237 390.177 C 65.774 389.846,65.678 388.962,65.049 388.441 C 64.615 388.081,64.451 388.160,64.280 388.814 M22.624 389.413 C 22.196 389.736,21.926 390.014,22.024 390.031 C 22.121 390.047,22.503 390.120,22.872 390.191 C 23.342 390.282,23.472 390.132,23.304 389.695 C 23.133 389.248,23.216 389.163,23.594 389.396 C 23.946 389.614,24.028 389.569,23.838 389.262 C 23.493 388.704,23.574 388.694,22.624 389.413 " stroke="none" fill="#700404" fill-rule="evenodd"></path><path id="path3" d="M184.533 10.231 C 184.400 10.578,184.561 11.132,184.891 11.462 C 185.424 11.995,185.515 11.967,185.714 11.208 C 185.908 10.466,185.853 10.423,185.299 10.877 C 184.743 11.333,184.691 11.285,184.893 10.500 C 185.158 9.474,184.898 9.280,184.533 10.231 M215.107 10.499 C 215.309 11.285,215.257 11.333,214.701 10.877 C 214.148 10.424,214.092 10.465,214.280 11.186 C 214.451 11.840,214.615 11.919,215.049 11.559 C 215.678 11.038,215.774 10.154,215.237 9.823 C 215.038 9.700,214.979 10.004,215.107 10.499 M184.488 31.300 C 184.537 40.155,184.626 44.880,184.687 41.800 C 184.967 27.591,184.973 15.199,184.700 15.200 C 184.535 15.200,184.440 22.445,184.488 31.300 M215.101 25.700 C 215.157 31.475,215.253 38.720,215.313 41.800 C 215.374 44.880,215.463 40.155,215.512 31.300 C 215.560 22.445,215.465 15.200,215.300 15.200 C 215.135 15.200,215.046 19.925,215.101 25.700 M172.800 47.313 C 172.470 47.581,172.138 48.160,172.062 48.600 C 171.986 49.040,172.059 49.267,172.225 49.103 C 172.391 48.940,172.813 49.022,173.163 49.284 C 173.696 49.684,173.719 49.670,173.300 49.201 C 173.025 48.892,172.803 48.361,172.806 48.020 C 172.812 47.472,172.863 47.470,173.244 48.000 C 173.600 48.496,173.633 48.470,173.432 47.852 C 173.229 47.228,173.354 47.136,174.194 47.297 C 174.747 47.403,175.200 47.334,175.200 47.145 C 175.200 46.632,173.490 46.752,172.800 47.313 M224.800 47.145 C 224.800 47.334,225.253 47.403,225.806 47.297 C 226.646 47.136,226.771 47.228,226.568 47.852 C 226.367 48.470,226.400 48.496,226.756 48.000 C 227.137 47.470,227.188 47.472,227.194 48.020 C 227.197 48.361,226.975 48.892,226.700 49.201 C 226.281 49.670,226.304 49.684,226.837 49.284 C 227.187 49.022,227.609 48.940,227.775 49.103 C 227.941 49.267,228.014 49.040,227.938 48.600 C 227.706 47.256,224.800 45.908,224.800 47.145 M159.969 72.033 C 159.953 72.125,159.880 72.503,159.809 72.872 C 159.718 73.342,159.868 73.472,160.305 73.304 C 160.752 73.133,160.837 73.216,160.604 73.594 C 160.381 73.954,160.430 74.028,160.758 73.826 C 161.130 73.596,161.124 73.378,160.733 72.864 C 160.454 72.499,160.175 72.125,160.113 72.033 C 160.051 71.942,159.986 71.942,159.969 72.033 M239.293 72.800 C 238.940 73.365,238.934 73.636,239.270 73.843 C 239.569 74.028,239.612 73.943,239.396 73.594 C 239.163 73.216,239.248 73.133,239.695 73.304 C 240.094 73.458,240.291 73.341,240.239 72.984 C 240.102 72.054,239.796 71.995,239.293 72.800 M148.400 97.165 C 148.400 97.571,149.423 97.511,149.855 97.078 C 150.008 96.925,149.743 96.800,149.267 96.800 C 148.790 96.800,148.400 96.964,148.400 97.165 M150.525 97.500 C 150.106 97.885,149.967 98.067,150.218 97.903 C 150.469 97.740,150.783 97.717,150.918 97.851 C 151.052 97.985,151.453 97.804,151.810 97.448 C 152.746 96.511,151.550 96.560,150.525 97.500 M146.800 99.267 C 146.800 99.743,146.925 100.008,147.078 99.855 C 147.511 99.423,147.571 98.400,147.165 98.400 C 146.964 98.400,146.800 98.790,146.800 99.267 M147.423 100.489 C 146.561 101.719,146.579 102.678,147.448 101.810 C 147.804 101.453,147.985 101.052,147.851 100.918 C 147.717 100.783,147.807 100.432,148.052 100.137 C 148.297 99.842,148.396 99.600,148.272 99.600 C 148.147 99.600,147.765 100.000,147.423 100.489 M98.400 197.165 C 98.400 197.571,99.423 197.511,99.855 197.078 C 100.008 196.925,99.743 196.800,99.267 196.800 C 98.790 196.800,98.400 196.964,98.400 197.165 M100.525 197.500 C 100.106 197.885,99.967 198.067,100.218 197.903 C 100.469 197.740,100.783 197.717,100.918 197.851 C 101.052 197.985,101.453 197.804,101.810 197.448 C 102.746 196.511,101.550 196.560,100.525 197.500 M96.800 199.267 C 96.800 199.743,96.925 200.008,97.078 199.855 C 97.511 199.423,97.571 198.400,97.165 198.400 C 96.964 198.400,96.800 198.790,96.800 199.267 M97.423 200.489 C 96.561 201.719,96.579 202.678,97.448 201.810 C 97.804 201.453,97.985 201.052,97.851 200.918 C 97.717 200.783,97.807 200.432,98.052 200.137 C 98.297 199.842,98.396 199.600,98.272 199.600 C 98.147 199.600,97.765 200.000,97.423 200.489 M85.337 234.980 C 85.485 235.367,85.367 235.485,84.980 235.337 C 84.661 235.214,84.400 235.275,84.400 235.472 C 84.400 235.669,84.748 235.856,85.173 235.888 C 85.708 235.928,85.928 235.708,85.888 235.173 C 85.856 234.748,85.669 234.400,85.472 234.400 C 85.275 234.400,85.214 234.661,85.337 234.980 M86.600 234.800 C 86.260 235.351,87.495 235.565,88.168 235.073 C 88.729 234.662,88.681 234.592,87.804 234.542 C 87.249 234.510,86.707 234.626,86.600 234.800 M89.861 234.700 C 89.758 234.865,90.872 234.950,92.337 234.890 C 96.977 234.697,97.521 234.530,93.724 234.464 C 91.702 234.429,89.963 234.535,89.861 234.700 M84.755 236.400 C 84.638 236.802,84.566 238.800,84.667 238.800 C 85.092 238.800,85.482 237.258,85.178 236.778 C 84.977 236.460,84.786 236.290,84.755 236.400 M84.580 240.108 C 84.473 240.388,84.434 244.843,84.493 250.008 L 84.601 259.400 84.801 249.500 C 84.996 239.813,84.978 239.070,84.580 240.108 M72.208 259.987 C 72.122 260.126,72.392 260.452,72.807 260.712 C 73.368 261.062,73.635 261.066,73.843 260.730 C 74.028 260.431,73.943 260.388,73.594 260.604 C 73.221 260.834,73.132 260.754,73.294 260.332 C 73.517 259.752,72.545 259.442,72.208 259.987 M59.823 284.763 C 59.700 284.962,60.004 285.021,60.499 284.893 C 61.285 284.691,61.333 284.743,60.877 285.299 C 60.424 285.852,60.465 285.908,61.186 285.720 C 61.840 285.549,61.919 285.385,61.559 284.951 C 61.038 284.322,60.154 284.226,59.823 284.763 M65.199 284.700 C 65.199 284.865,66.324 284.950,67.699 284.888 C 71.950 284.698,72.360 284.523,68.700 284.460 C 66.775 284.427,65.200 284.535,65.199 284.700 M47.067 310.667 C 46.698 311.036,46.732 312.310,47.116 312.548 C 47.291 312.656,47.426 312.217,47.417 311.572 C 47.409 310.927,47.386 310.400,47.368 310.400 C 47.349 310.400,47.213 310.520,47.067 310.667 M35.337 334.980 C 35.485 335.367,35.367 335.485,34.980 335.337 C 34.661 335.214,34.400 335.275,34.400 335.472 C 34.400 335.669,34.748 335.856,35.173 335.888 C 35.708 335.928,35.928 335.708,35.888 335.173 C 35.856 334.748,35.669 334.400,35.472 334.400 C 35.275 334.400,35.214 334.661,35.337 334.980 M36.600 334.800 C 36.260 335.351,37.495 335.565,38.168 335.073 C 38.729 334.662,38.681 334.592,37.804 334.542 C 37.249 334.510,36.707 334.626,36.600 334.800 M39.861 334.700 C 39.758 334.865,40.872 334.950,42.337 334.890 C 46.977 334.697,47.521 334.530,43.724 334.464 C 41.702 334.429,39.963 334.535,39.861 334.700 M34.755 336.400 C 34.638 336.802,34.566 338.800,34.667 338.800 C 35.092 338.800,35.482 337.258,35.178 336.778 C 34.977 336.460,34.786 336.290,34.755 336.400 M34.580 340.108 C 34.473 340.388,34.434 344.843,34.493 350.008 L 34.601 359.400 34.801 349.500 C 34.996 339.813,34.978 339.070,34.580 340.108 M22.208 359.987 C 22.122 360.126,22.392 360.452,22.807 360.712 C 23.368 361.062,23.635 361.066,23.843 360.730 C 24.028 360.431,23.943 360.388,23.594 360.604 C 23.221 360.834,23.132 360.754,23.294 360.332 C 23.517 359.752,22.545 359.442,22.208 359.987 M88.679 364.280 C 88.106 364.428,88.054 364.584,88.428 365.033 C 88.961 365.676,89.843 365.778,90.177 365.237 C 90.300 365.038,89.996 364.979,89.501 365.107 C 88.698 365.313,88.660 365.266,89.149 364.669 C 89.451 364.301,89.631 364.021,89.549 364.046 C 89.467 364.072,89.075 364.177,88.679 364.280 M81.200 365.200 L 77.800 365.451 81.300 365.525 C 83.416 365.571,84.800 365.442,84.800 365.200 C 84.800 364.980,84.755 364.834,84.700 364.875 C 84.645 364.916,83.070 365.062,81.200 365.200 M77.127 375.800 C 76.877 376.350,76.555 376.800,76.412 376.800 C 76.270 376.800,75.804 377.057,75.376 377.370 C 74.617 377.928,74.617 377.939,75.367 377.870 C 76.366 377.779,77.798 376.392,77.815 375.500 C 77.833 374.546,77.665 374.620,77.127 375.800 M65.129 381.401 C 65.058 383.271,65.135 384.801,65.300 384.801 C 65.465 384.800,65.600 383.270,65.600 381.400 C 65.600 377.007,65.297 377.007,65.129 381.401 M64.280 388.814 C 64.092 389.535,64.148 389.576,64.701 389.123 C 65.257 388.667,65.309 388.715,65.107 389.501 C 64.979 389.996,65.038 390.300,65.237 390.177 C 65.774 389.846,65.678 388.962,65.049 388.441 C 64.615 388.081,64.451 388.160,64.280 388.814 M22.624 389.413 C 22.196 389.736,21.926 390.014,22.024 390.031 C 22.121 390.047,22.503 390.120,22.872 390.191 C 23.342 390.282,23.472 390.132,23.304 389.695 C 23.133 389.248,23.216 389.163,23.594 389.396 C 23.946 389.614,24.028 389.569,23.838 389.262 C 23.493 388.704,23.574 388.694,22.624 389.413 " stroke="none" fill="#700404" fill-rule="evenodd"></path><path id="path4" d="M184.533 10.231 C 184.400 10.578,184.561 11.132,184.891 11.462 C 185.424 11.995,185.515 11.967,185.714 11.208 C 185.908 10.466,185.853 10.423,185.299 10.877 C 184.743 11.333,184.691 11.285,184.893 10.500 C 185.158 9.474,184.898 9.280,184.533 10.231 M215.107 10.499 C 215.309 11.285,215.257 11.333,214.701 10.877 C 214.148 10.424,214.092 10.465,214.280 11.186 C 214.451 11.840,214.615 11.919,215.049 11.559 C 215.678 11.038,215.774 10.154,215.237 9.823 C 215.038 9.700,214.979 10.004,215.107 10.499 M184.488 31.300 C 184.537 40.155,184.626 44.880,184.687 41.800 C 184.967 27.591,184.973 15.199,184.700 15.200 C 184.535 15.200,184.440 22.445,184.488 31.300 M215.101 25.700 C 215.157 31.475,215.253 38.720,215.313 41.800 C 215.374 44.880,215.463 40.155,215.512 31.300 C 215.560 22.445,215.465 15.200,215.300 15.200 C 215.135 15.200,215.046 19.925,215.101 25.700 M172.800 47.313 C 172.470 47.581,172.138 48.160,172.062 48.600 C 171.986 49.040,172.059 49.267,172.225 49.103 C 172.391 48.940,172.813 49.022,173.163 49.284 C 173.696 49.684,173.719 49.670,173.300 49.201 C 173.025 48.892,172.803 48.361,172.806 48.020 C 172.812 47.472,172.863 47.470,173.244 48.000 C 173.600 48.496,173.633 48.470,173.432 47.852 C 173.229 47.228,173.354 47.136,174.194 47.297 C 174.747 47.403,175.200 47.334,175.200 47.145 C 175.200 46.632,173.490 46.752,172.800 47.313 M224.800 47.145 C 224.800 47.334,225.253 47.403,225.806 47.297 C 226.646 47.136,226.771 47.228,226.568 47.852 C 226.367 48.470,226.400 48.496,226.756 48.000 C 227.137 47.470,227.188 47.472,227.194 48.020 C 227.197 48.361,226.975 48.892,226.700 49.201 C 226.281 49.670,226.304 49.684,226.837 49.284 C 227.187 49.022,227.609 48.940,227.775 49.103 C 227.941 49.267,228.014 49.040,227.938 48.600 C 227.706 47.256,224.800 45.908,224.800 47.145 M159.969 72.033 C 159.953 72.125,159.880 72.503,159.809 72.872 C 159.718 73.342,159.868 73.472,160.305 73.304 C 160.752 73.133,160.837 73.216,160.604 73.594 C 160.381 73.954,160.430 74.028,160.758 73.826 C 161.130 73.596,161.124 73.378,160.733 72.864 C 160.454 72.499,160.175 72.125,160.113 72.033 C 160.051 71.942,159.986 71.942,159.969 72.033 M239.293 72.800 C 238.940 73.365,238.934 73.636,239.270 73.843 C 239.569 74.028,239.612 73.943,239.396 73.594 C 239.163 73.216,239.248 73.133,239.695 73.304 C 240.094 73.458,240.291 73.341,240.239 72.984 C 240.102 72.054,239.796 71.995,239.293 72.800 M148.400 97.165 C 148.400 97.571,149.423 97.511,149.855 97.078 C 150.008 96.925,149.743 96.800,149.267 96.800 C 148.790 96.800,148.400 96.964,148.400 97.165 M150.525 97.500 C 150.106 97.885,149.967 98.067,150.218 97.903 C 150.469 97.740,150.783 97.717,150.918 97.851 C 151.052 97.985,151.453 97.804,151.810 97.448 C 152.746 96.511,151.550 96.560,150.525 97.500 M146.800 99.267 C 146.800 99.743,146.925 100.008,147.078 99.855 C 147.511 99.423,147.571 98.400,147.165 98.400 C 146.964 98.400,146.800 98.790,146.800 99.267 M147.423 100.489 C 146.561 101.719,146.579 102.678,147.448 101.810 C 147.804 101.453,147.985 101.052,147.851 100.918 C 147.717 100.783,147.807 100.432,148.052 100.137 C 148.297 99.842,148.396 99.600,148.272 99.600 C 148.147 99.600,147.765 100.000,147.423 100.489 M98.400 197.165 C 98.400 197.571,99.423 197.511,99.855 197.078 C 100.008 196.925,99.743 196.800,99.267 196.800 C 98.790 196.800,98.400 196.964,98.400 197.165 M100.525 197.500 C 100.106 197.885,99.967 198.067,100.218 197.903 C 100.469 197.740,100.783 197.717,100.918 197.851 C 101.052 197.985,101.453 197.804,101.810 197.448 C 102.746 196.511,101.550 196.560,100.525 197.500 M96.800 199.267 C 96.800 199.743,96.925 200.008,97.078 199.855 C 97.511 199.423,97.571 198.400,97.165 198.400 C 96.964 198.400,96.800 198.790,96.800 199.267 M97.423 200.489 C 96.561 201.719,96.579 202.678,97.448 201.810 C 97.804 201.453,97.985 201.052,97.851 200.918 C 97.717 200.783,97.807 200.432,98.052 200.137 C 98.297 199.842,98.396 199.600,98.272 199.600 C 98.147 199.600,97.765 200.000,97.423 200.489 M85.337 234.980 C 85.485 235.367,85.367 235.485,84.980 235.337 C 84.661 235.214,84.400 235.275,84.400 235.472 C 84.400 235.669,84.748 235.856,85.173 235.888 C 85.708 235.928,85.928 235.708,85.888 235.173 C 85.856 234.748,85.669 234.400,85.472 234.400 C 85.275 234.400,85.214 234.661,85.337 234.980 M86.600 234.800 C 86.260 235.351,87.495 235.565,88.168 235.073 C 88.729 234.662,88.681 234.592,87.804 234.542 C 87.249 234.510,86.707 234.626,86.600 234.800 M89.861 234.700 C 89.758 234.865,90.872 234.950,92.337 234.890 C 96.977 234.697,97.521 234.530,93.724 234.464 C 91.702 234.429,89.963 234.535,89.861 234.700 M84.755 236.400 C 84.638 236.802,84.566 238.800,84.667 238.800 C 85.092 238.800,85.482 237.258,85.178 236.778 C 84.977 236.460,84.786 236.290,84.755 236.400 M84.580 240.108 C 84.473 240.388,84.434 244.843,84.493 250.008 L 84.601 259.400 84.801 249.500 C 84.996 239.813,84.978 239.070,84.580 240.108 M72.208 259.987 C 72.122 260.126,72.392 260.452,72.807 260.712 C 73.368 261.062,73.635 261.066,73.843 260.730 C 74.028 260.431,73.943 260.388,73.594 260.604 C 73.221 260.834,73.132 260.754,73.294 260.332 C 73.517 259.752,72.545 259.442,72.208 259.987 M59.823 284.763 C 59.700 284.962,60.004 285.021,60.499 284.893 C 61.285 284.691,61.333 284.743,60.877 285.299 C 60.424 285.852,60.465 285.908,61.186 285.720 C 61.840 285.549,61.919 285.385,61.559 284.951 C 61.038 284.322,60.154 284.226,59.823 284.763 M65.199 284.700 C 65.199 284.865,66.324 284.950,67.699 284.888 C 71.950 284.698,72.360 284.523,68.700 284.460 C 66.775 284.427,65.200 284.535,65.199 284.700 M47.067 310.667 C 46.698 311.036,46.732 312.310,47.116 312.548 C 47.291 312.656,47.426 312.217,47.417 311.572 C 47.409 310.927,47.386 310.400,47.368 310.400 C 47.349 310.400,47.213 310.520,47.067 310.667 M35.337 334.980 C 35.485 335.367,35.367 335.485,34.980 335.337 C 34.661 335.214,34.400 335.275,34.400 335.472 C 34.400 335.669,34.748 335.856,35.173 335.888 C 35.708 335.928,35.928 335.708,35.888 335.173 C 35.856 334.748,35.669 334.400,35.472 334.400 C 35.275 334.400,35.214 334.661,35.337 334.980 M36.600 334.800 C 36.260 335.351,37.495 335.565,38.168 335.073 C 38.729 334.662,38.681 334.592,37.804 334.542 C 37.249 334.510,36.707 334.626,36.600 334.800 M39.861 334.700 C 39.758 334.865,40.872 334.950,42.337 334.890 C 46.977 334.697,47.521 334.530,43.724 334.464 C 41.702 334.429,39.963 334.535,39.861 334.700 M34.755 336.400 C 34.638 336.802,34.566 338.800,34.667 338.800 C 35.092 338.800,35.482 337.258,35.178 336.778 C 34.977 336.460,34.786 336.290,34.755 336.400 M34.580 340.108 C 34.473 340.388,34.434 344.843,34.493 350.008 L 34.601 359.400 34.801 349.500 C 34.996 339.813,34.978 339.070,34.580 340.108 M22.208 359.987 C 22.122 360.126,22.392 360.452,22.807 360.712 C 23.368 361.062,23.635 361.066,23.843 360.730 C 24.028 360.431,23.943 360.388,23.594 360.604 C 23.221 360.834,23.132 360.754,23.294 360.332 C 23.517 359.752,22.545 359.442,22.208 359.987 M88.679 364.280 C 88.106 364.428,88.054 364.584,88.428 365.033 C 88.961 365.676,89.843 365.778,90.177 365.237 C 90.300 365.038,89.996 364.979,89.501 365.107 C 88.698 365.313,88.660 365.266,89.149 364.669 C 89.451 364.301,89.631 364.021,89.549 364.046 C 89.467 364.072,89.075 364.177,88.679 364.280 M81.200 365.200 L 77.800 365.451 81.300 365.525 C 83.416 365.571,84.800 365.442,84.800 365.200 C 84.800 364.980,84.755 364.834,84.700 364.875 C 84.645 364.916,83.070 365.062,81.200 365.200 M77.127 375.800 C 76.877 376.350,76.555 376.800,76.412 376.800 C 76.270 376.800,75.804 377.057,75.376 377.370 C 74.617 377.928,74.617 377.939,75.367 377.870 C 76.366 377.779,77.798 376.392,77.815 375.500 C 77.833 374.546,77.665 374.620,77.127 375.800 M65.129 381.401 C 65.058 383.271,65.135 384.801,65.300 384.801 C 65.465 384.800,65.600 383.270,65.600 381.400 C 65.600 377.007,65.297 377.007,65.129 381.401 M64.280 388.814 C 64.092 389.535,64.148 389.576,64.701 389.123 C 65.257 388.667,65.309 388.715,65.107 389.501 C 64.979 389.996,65.038 390.300,65.237 390.177 C 65.774 389.846,65.678 388.962,65.049 388.441 C 64.615 388.081,64.451 388.160,64.280 388.814 M22.624 389.413 C 22.196 389.736,21.926 390.014,22.024 390.031 C 22.121 390.047,22.503 390.120,22.872 390.191 C 23.342 390.282,23.472 390.132,23.304 389.695 C 23.133 389.248,23.216 389.163,23.594 389.396 C 23.946 389.614,24.028 389.569,23.838 389.262 C 23.493 388.704,23.574 388.694,22.624 389.413 " stroke="none" fill="#700404" fill-rule="evenodd"></path></g></svg>